<svg id="圖層_1" data-name="圖層 1" xmlns="http://www.w3.org/2000/svg" viewBox="0 0 1200 500"><defs><style>.cls-1{fill:none;}</style></defs><path d="M470.41,751.11,363.31,329h58.24l50.1,213.56c12.53,52.61,23.8,105.21,31.31,145.92h1.25c6.26-42,20-92.69,34.45-146.55L595,329h57l51.35,214.19c11.9,50.1,23.17,100.21,29.44,144.67h1.25c8.77-46.34,20.67-93.94,33.19-145.92L823,329h56.37L759.75,751.11H702.13L649.52,531.28C636.37,477.42,627.6,436.09,622,393.5h-1.25c-7.52,42-17.54,83.29-32.57,137.78l-59.5,219.83Z" transform="translate(-360 -296.5)"/><path d="M1149.92,553.2H986.46V706h182.87V751.1h-238V329h228.59v45.09H986.46v134h163.46Z" transform="translate(-360 -296.5)"/><path d="M1238.85,751.11V329h60.75l134.65,212.94C1464.94,592,1490,636.51,1510,679.72l1.25-.63c-5-56.37-6.26-107.72-6.26-172.85V329h51.35V751.11h-55.11l-134-214.19c-29.44-47-57.62-95.19-78.91-140.91l-1.88.63c3.13,53.23,4.38,104,4.38,174.11V751.12h-52Z" transform="translate(-360 -296.5)"/><rect class="cls-1" width="1200" height="500"/></svg>